<svg xmlns="http://www.w3.org/2000/svg" viewBox="0 0 48 48">
  <defs>
    <linearGradient id="sky" x1="0" y1="0" x2="0" y2="1">
      <stop offset="0" stop-color="#4fa8e0"/>
      <stop offset="1" stop-color="#1a3f6e"/>
    </linearGradient>
  </defs>
  <circle cx="24" cy="24" r="24" fill="url(#sky)"/>
  <circle cx="17" cy="16" r="6" fill="#fff" opacity="0.9"/>
  <path d="M8 30c0-4.4 3.6-8 8-8 1 0 2 .2 2.9.5A9 9 0 0 1 36 28.5c3 .6 5 3.2 5 6.2 0 3.5-2.9 6.3-6.4 6.3H14.4C10.9 41 8 38.2 8 34.7 8 32.9 8.7 31.3 9.9 30.1 9.3 30.1 8.6 30 8 30Z" fill="#fff"/>
</svg>
